<svg width="1012" height="506" viewBox="0 0 1012 506" fill="none" xmlns="http://www.w3.org/2000/svg">
<path d="M460.333 295.667H385.667C382.838 295.667 380.125 294.543 378.124 292.542C376.124 290.542 375 287.829 375 285V221C375 218.171 376.124 215.458 378.124 213.458C380.125 211.457 382.838 210.333 385.667 210.333H439C441.829 210.333 444.542 211.457 446.542 213.458C448.543 215.458 449.667 218.171 449.667 221V226.333L460.333 295.667ZM460.333 295.667C457.504 295.667 454.791 294.543 452.791 292.542C450.79 290.542 449.667 287.829 449.667 285V226.333L460.333 295.667ZM460.333 295.667C463.162 295.667 465.875 294.543 467.876 292.542C469.876 290.542 471 287.829 471 285V237C471 234.171 469.876 231.458 467.876 229.458C465.875 227.457 463.162 226.333 460.333 226.333H449.667L460.333 295.667ZM428.333 210.333H407H428.333ZM396.333 274.333H428.333H396.333ZM396.333 231.667H428.333V253H396.333V231.667Z" stroke="#A78B44" stroke-width="10.6667" stroke-linecap="round" stroke-linejoin="round"/>
<path d="M460.333 295.667H385.667C382.838 295.667 380.125 294.543 378.124 292.542C376.124 290.542 375 287.829 375 285V221C375 218.171 376.124 215.458 378.124 213.458C380.125 211.457 382.838 210.333 385.667 210.333H439C441.829 210.333 444.542 211.457 446.542 213.458C448.543 215.458 449.667 218.171 449.667 221V226.333L460.333 295.667ZM460.333 295.667C457.504 295.667 454.791 294.543 452.791 292.542C450.79 290.542 449.667 287.829 449.667 285V226.333L460.333 295.667ZM460.333 295.667C463.162 295.667 465.875 294.543 467.876 292.542C469.876 290.542 471 287.829 471 285V237C471 234.171 469.876 231.458 467.876 229.458C465.875 227.457 463.162 226.333 460.333 226.333H449.667L460.333 295.667ZM428.333 210.333H407H428.333ZM396.333 274.333H428.333H396.333ZM396.333 231.667H428.333V253H396.333V231.667Z" stroke="url(#paint0_linear_552_4)" stroke-width="10.6667" stroke-linecap="round" stroke-linejoin="round"/>
<path d="M519.591 277V230.455H537.409C540.773 230.455 543.568 230.985 545.795 232.045C548.038 233.091 549.712 234.523 550.818 236.341C551.939 238.159 552.5 240.22 552.5 242.523C552.5 244.417 552.136 246.038 551.409 247.386C550.682 248.72 549.705 249.803 548.477 250.636C547.25 251.47 545.879 252.068 544.364 252.432V252.886C546.015 252.977 547.598 253.485 549.114 254.409C550.644 255.318 551.894 256.606 552.864 258.273C553.833 259.939 554.318 261.955 554.318 264.318C554.318 266.727 553.735 268.894 552.568 270.818C551.402 272.727 549.644 274.235 547.295 275.341C544.947 276.447 541.992 277 538.432 277H519.591ZM528.023 269.955H537.091C540.152 269.955 542.356 269.371 543.705 268.205C545.068 267.023 545.75 265.508 545.75 263.659C545.75 262.28 545.409 261.038 544.727 259.932C544.045 258.811 543.076 257.932 541.818 257.295C540.561 256.644 539.061 256.318 537.318 256.318H528.023V269.955ZM528.023 250.25H536.364C537.818 250.25 539.129 249.985 540.295 249.455C541.462 248.909 542.379 248.144 543.045 247.159C543.727 246.159 544.068 244.977 544.068 243.614C544.068 241.811 543.432 240.326 542.159 239.159C540.902 237.992 539.03 237.409 536.545 237.409H528.023V250.25ZM569.517 230.455V277H561.29V230.455H569.517ZM593.205 277.682C589.795 277.682 586.841 276.932 584.341 275.432C581.841 273.932 579.902 271.833 578.523 269.136C577.159 266.439 576.477 263.288 576.477 259.682C576.477 256.076 577.159 252.917 578.523 250.205C579.902 247.492 581.841 245.386 584.341 243.886C586.841 242.386 589.795 241.636 593.205 241.636C596.614 241.636 599.568 242.386 602.068 243.886C604.568 245.386 606.5 247.492 607.864 250.205C609.242 252.917 609.932 256.076 609.932 259.682C609.932 263.288 609.242 266.439 607.864 269.136C606.5 271.833 604.568 273.932 602.068 275.432C599.568 276.932 596.614 277.682 593.205 277.682ZM593.25 271.091C595.098 271.091 596.644 270.583 597.886 269.568C599.129 268.538 600.053 267.159 600.659 265.432C601.28 263.705 601.591 261.78 601.591 259.659C601.591 257.523 601.28 255.591 600.659 253.864C600.053 252.121 599.129 250.735 597.886 249.705C596.644 248.674 595.098 248.159 593.25 248.159C591.356 248.159 589.78 248.674 588.523 249.705C587.28 250.735 586.348 252.121 585.727 253.864C585.121 255.591 584.818 257.523 584.818 259.659C584.818 261.78 585.121 263.705 585.727 265.432C586.348 267.159 587.28 268.538 588.523 269.568C589.78 270.583 591.356 271.091 593.25 271.091ZM632.097 290.818C629.142 290.818 626.604 290.417 624.483 289.614C622.362 288.826 620.657 287.765 619.369 286.432C618.081 285.098 617.188 283.621 616.688 282L624.097 280.205C624.43 280.886 624.915 281.561 625.551 282.227C626.188 282.909 627.044 283.47 628.119 283.909C629.21 284.364 630.581 284.591 632.233 284.591C634.566 284.591 636.498 284.023 638.028 282.886C639.559 281.765 640.324 279.917 640.324 277.341V270.727H639.915C639.491 271.576 638.869 272.447 638.051 273.341C637.248 274.235 636.18 274.985 634.847 275.591C633.528 276.197 631.869 276.5 629.869 276.5C627.188 276.5 624.756 275.871 622.574 274.614C620.407 273.341 618.68 271.447 617.392 268.932C616.119 266.402 615.483 263.235 615.483 259.432C615.483 255.598 616.119 252.364 617.392 249.727C618.68 247.076 620.415 245.068 622.597 243.705C624.778 242.326 627.21 241.636 629.892 241.636C631.938 241.636 633.619 241.985 634.938 242.682C636.271 243.364 637.331 244.189 638.119 245.159C638.907 246.114 639.506 247.015 639.915 247.864H640.369V242.091H648.483V277.568C648.483 280.553 647.771 283.023 646.347 284.977C644.922 286.932 642.975 288.394 640.506 289.364C638.036 290.333 635.233 290.818 632.097 290.818ZM632.165 270.045C633.907 270.045 635.392 269.621 636.619 268.773C637.847 267.924 638.778 266.705 639.415 265.114C640.051 263.523 640.369 261.614 640.369 259.386C640.369 257.189 640.051 255.265 639.415 253.614C638.794 251.962 637.869 250.682 636.642 249.773C635.43 248.848 633.938 248.386 632.165 248.386C630.331 248.386 628.801 248.864 627.574 249.818C626.347 250.773 625.422 252.083 624.801 253.75C624.18 255.402 623.869 257.28 623.869 259.386C623.869 261.523 624.18 263.394 624.801 265C625.438 266.591 626.369 267.833 627.597 268.727C628.839 269.606 630.362 270.045 632.165 270.045Z" fill="#A78B44"/>
<path d="M519.591 277V230.455H537.409C540.773 230.455 543.568 230.985 545.795 232.045C548.038 233.091 549.712 234.523 550.818 236.341C551.939 238.159 552.5 240.22 552.5 242.523C552.5 244.417 552.136 246.038 551.409 247.386C550.682 248.72 549.705 249.803 548.477 250.636C547.25 251.47 545.879 252.068 544.364 252.432V252.886C546.015 252.977 547.598 253.485 549.114 254.409C550.644 255.318 551.894 256.606 552.864 258.273C553.833 259.939 554.318 261.955 554.318 264.318C554.318 266.727 553.735 268.894 552.568 270.818C551.402 272.727 549.644 274.235 547.295 275.341C544.947 276.447 541.992 277 538.432 277H519.591ZM528.023 269.955H537.091C540.152 269.955 542.356 269.371 543.705 268.205C545.068 267.023 545.75 265.508 545.75 263.659C545.75 262.28 545.409 261.038 544.727 259.932C544.045 258.811 543.076 257.932 541.818 257.295C540.561 256.644 539.061 256.318 537.318 256.318H528.023V269.955ZM528.023 250.25H536.364C537.818 250.25 539.129 249.985 540.295 249.455C541.462 248.909 542.379 248.144 543.045 247.159C543.727 246.159 544.068 244.977 544.068 243.614C544.068 241.811 543.432 240.326 542.159 239.159C540.902 237.992 539.03 237.409 536.545 237.409H528.023V250.25ZM569.517 230.455V277H561.29V230.455H569.517ZM593.205 277.682C589.795 277.682 586.841 276.932 584.341 275.432C581.841 273.932 579.902 271.833 578.523 269.136C577.159 266.439 576.477 263.288 576.477 259.682C576.477 256.076 577.159 252.917 578.523 250.205C579.902 247.492 581.841 245.386 584.341 243.886C586.841 242.386 589.795 241.636 593.205 241.636C596.614 241.636 599.568 242.386 602.068 243.886C604.568 245.386 606.5 247.492 607.864 250.205C609.242 252.917 609.932 256.076 609.932 259.682C609.932 263.288 609.242 266.439 607.864 269.136C606.5 271.833 604.568 273.932 602.068 275.432C599.568 276.932 596.614 277.682 593.205 277.682ZM593.25 271.091C595.098 271.091 596.644 270.583 597.886 269.568C599.129 268.538 600.053 267.159 600.659 265.432C601.28 263.705 601.591 261.78 601.591 259.659C601.591 257.523 601.28 255.591 600.659 253.864C600.053 252.121 599.129 250.735 597.886 249.705C596.644 248.674 595.098 248.159 593.25 248.159C591.356 248.159 589.78 248.674 588.523 249.705C587.28 250.735 586.348 252.121 585.727 253.864C585.121 255.591 584.818 257.523 584.818 259.659C584.818 261.78 585.121 263.705 585.727 265.432C586.348 267.159 587.28 268.538 588.523 269.568C589.78 270.583 591.356 271.091 593.25 271.091ZM632.097 290.818C629.142 290.818 626.604 290.417 624.483 289.614C622.362 288.826 620.657 287.765 619.369 286.432C618.081 285.098 617.188 283.621 616.688 282L624.097 280.205C624.43 280.886 624.915 281.561 625.551 282.227C626.188 282.909 627.044 283.47 628.119 283.909C629.21 284.364 630.581 284.591 632.233 284.591C634.566 284.591 636.498 284.023 638.028 282.886C639.559 281.765 640.324 279.917 640.324 277.341V270.727H639.915C639.491 271.576 638.869 272.447 638.051 273.341C637.248 274.235 636.18 274.985 634.847 275.591C633.528 276.197 631.869 276.5 629.869 276.5C627.188 276.5 624.756 275.871 622.574 274.614C620.407 273.341 618.68 271.447 617.392 268.932C616.119 266.402 615.483 263.235 615.483 259.432C615.483 255.598 616.119 252.364 617.392 249.727C618.68 247.076 620.415 245.068 622.597 243.705C624.778 242.326 627.21 241.636 629.892 241.636C631.938 241.636 633.619 241.985 634.938 242.682C636.271 243.364 637.331 244.189 638.119 245.159C638.907 246.114 639.506 247.015 639.915 247.864H640.369V242.091H648.483V277.568C648.483 280.553 647.771 283.023 646.347 284.977C644.922 286.932 642.975 288.394 640.506 289.364C638.036 290.333 635.233 290.818 632.097 290.818ZM632.165 270.045C633.907 270.045 635.392 269.621 636.619 268.773C637.847 267.924 638.778 266.705 639.415 265.114C640.051 263.523 640.369 261.614 640.369 259.386C640.369 257.189 640.051 255.265 639.415 253.614C638.794 251.962 637.869 250.682 636.642 249.773C635.43 248.848 633.938 248.386 632.165 248.386C630.331 248.386 628.801 248.864 627.574 249.818C626.347 250.773 625.422 252.083 624.801 253.75C624.18 255.402 623.869 257.28 623.869 259.386C623.869 261.523 624.18 263.394 624.801 265C625.438 266.591 626.369 267.833 627.597 268.727C628.839 269.606 630.362 270.045 632.165 270.045Z" fill="url(#paint1_linear_552_4)"/>
<defs>
<linearGradient id="paint0_linear_552_4" x1="423" y1="210.333" x2="423" y2="295.667" gradientUnits="userSpaceOnUse">
<stop stop-color="#EED8A1"/>
<stop offset="1" stop-color="#EED8A1" stop-opacity="0.2"/>
</linearGradient>
<linearGradient id="paint1_linear_552_4" x1="584" y1="215" x2="584" y2="292" gradientUnits="userSpaceOnUse">
<stop stop-color="#EED8A1"/>
<stop offset="1" stop-color="#EED8A1" stop-opacity="0.2"/>
</linearGradient>
</defs>
</svg>
